<?xml version="1.0" standalone="no"?>
<!DOCTYPE svg PUBLIC "-//W3C//DTD SVG 20010904//EN"
 "http://www.w3.org/TR/2001/REC-SVG-20010904/DTD/svg10.dtd">
<svg version="1.0" xmlns="http://www.w3.org/2000/svg"
 width="223.000000pt" height="223.000000pt" viewBox="0 0 223.000000 223.000000"
 preserveAspectRatio="xMidYMid meet">
<metadata>
Created by potrace 1.11, written by Peter Selinger 2001-2013
</metadata>
<g transform="translate(0.000000,223.000000) scale(0.100000,-0.100000)"
fill="#000000" stroke="none">
<path d="M923 2175 c-454 -83 -800 -434 -882 -895 -3 -19 -6 -102 -6 -185 1
-124 5 -166 24 -240 83 -321 286 -572 576 -714 174 -85 299 -112 505 -107 178
5 297 32 445 105 498 244 733 822 545 1338 -123 336 -401 589 -749 680 -117
31 -341 40 -458 18z m343 -88 c5 -3 26 -8 48 -11 160 -25 370 -140 498 -272
198 -203 292 -442 283 -719 -5 -173 -25 -259 -94 -403 -141 -290 -417 -496
-735 -547 -76 -12 -260 -12 -321 0 -324 64 -589 266 -725 550 -157 330 -119
720 98 1011 126 169 308 299 497 355 126 38 188 46 326 44 65 -2 121 -5 125
-8z"/>
<path d="M824 1213 c0 -346 -2 -381 -18 -413 -32 -60 -64 -80 -126 -80 -79 0
-138 42 -162 115 -11 33 -17 39 -40 38 -70 -3 -66 1 -57 -49 15 -81 78 -151
160 -178 160 -51 306 27 334 178 4 21 8 201 8 400 l1 361 -50 3 -49 3 -1 -378z"/>
<path d="M1114 1118 l1 -473 45 0 45 0 2 424 c1 232 4 425 7 428 10 10 237 3
279 -8 64 -17 104 -46 134 -96 52 -89 26 -215 -56 -270 -46 -31 -95 -43 -190
-46 -45 -1 -81 -3 -81 -5 0 -1 72 -98 160 -215 l160 -212 60 0 c33 0 60 1 60
2 0 1 -59 80 -131 175 l-130 172 48 11 c94 22 160 74 198 157 63 139 18 299
-107 376 -63 39 -132 50 -324 51 l-182 2 2 -473z"/>
</g>
</svg>
